<?xml version="1.0" encoding="UTF-8"?>
<svg version="1.1" viewBox="0 0 2000 2000" width="1280" height="1280" xmlns="http://www.w3.org/2000/svg">
<path transform="translate(1044,800)" d="m0 0 13 1 10 4 8 6 5 4v-10l4-1h30l2 4v184l-2 2h-33l-1-1-1-75-8 7-11 5-11 2h-9l-13-3-11-6-9-8-8-11-7-16-2-8-1-10v-9l2-13 4-12 6-11 8-10 12-9 13-5zm8 31-9 3-8 6-6 9-3 8v18l4 10 6 8 8 6 7 2h7l8-3 6-4 6-7 4-8 2-10-1-12-4-10-6-8-9-6z" fill="#FEFEFE"/>
<path transform="translate(569,738)" d="m0 0h42l1 2v13l-1 17-21 1h-36l1 2v25l-1 14h53l1 1v30l-1 1-52 1v24l-1 58-3 1h-32l-2-1v-169l-1-11 4-6 2-1 13-1z" fill="#FEFEFE"/>
<path transform="translate(687,800)" d="m0 0 16 1 12 3 13 7 11 10 7 10 6 13 3 15v13l-3 16-5 12-7 10-10 10-10 6-16 5-9 1h-13l-12-2-16-7-13-11-9-13-5-12-2-9v-23l3-13 7-14 9-10 9-8 12-6 11-3zm1 31-10 3-9 7-6 10-2 8v15l4 11 6 8 9 6 8 2 9-1 8-4 5-4 6-9 2-7v-20l-4-9-4-6-7-6-7-3z" fill="#FEFEFE"/>
<path transform="translate(1377,801)" d="m0 0h27l13 4 11 7 7 7 8 14 4 13 2 14v11l-3 1h-79l4 15 5 10 6 5 6 2h9l9-4 7-8 3-4 27 4 5 2-2 6-6 10-6 7-13 9-11 4-14 2h-12l-14-3-12-6-10-8-8-10-6-13-4-18v-11l3-19 5-13 7-11 9-9 11-6zm11 24-9 4-6 7-4 11 1 3h45l1-3-4-10-7-8-6-3-4-1z" fill="#FEFEFE"/>
<path transform="translate(1261,801)" d="m0 0h21l10 3 8 6 7 8 5 12 2 11v86l-3 1h-31l-1-1-1-76-2-11-4-7-6-3h-12l-6 3-4 5-3 8-1 4-1 77-4 1h-31l-1-2v-120l1-2h33l2 4-1 6 5-3 9-7z" fill="#FEFEFE"/>
<path transform="translate(771,804)" d="m0 0 35 1 1 75 2 10 5 8 8 3h9l6-3 5-6 2-6 1-7 1-74 2-1 33 1v83l-3 14-6 11-6 7-11 7-15 4-10 1h-11l-13-2-13-5-9-7-7-10-5-13-2-13v-77z" fill="#FEFEFE"/>
<path transform="translate(1460,804)" d="m0 0h40l5 4 8 12 8 11 2 3 3-1 12-20 5-8 5-1h39l-2 4-12 15-26 34-2 2 1 5 11 13 26 34 10 13 1 3-7 1h-34l-4-4-18-24-9-13-3-1-2 5-24 36-2 1h-40l-2-2 8-9 8-11 10-12 9-12 11-14 5-7-6-9-16-21-14-19-4-5z" fill="#FEFEFE"/>
<path transform="translate(962,801)" d="m0 0h19l5 2 1 3-4 28-4 1-9-3h-7l-10 4-7 8-3 9-1 7-1 43v24l-13 1h-22l-1-1v-122l34-1 2 4-1 8 4-2 5-5 8-6z" fill="#FEFEFE"/>
<path transform="translate(1143,804)" d="m0 0 34 1 1 3v119l-3 1h-32l-1-1v-122z" fill="#FEFEFE"/>
<path transform="translate(1154,732)" d="m0 0h11l8 4 6 7 2 6v7l-4 9-8 7-7 2-9-1-7-4-6-8-1-3v-10l5-10 7-5z" fill="#FEFEFE"/>
<path transform="translate(792,1069)" d="m0 0h11l8 4 5 6 3 7v13l-3 8-5 6-6 3h-15l-7-4-5-8-2-8v-7l3-9 5-7zm1 6-7 6-2 5v14l3 6 5 4 9 1 6-3 4-6 1-11-2-9-5-5-4-2z" fill="#FEFEFE"/>
<path transform="translate(1195,1069)" d="m0 0h8l9 3 6 7 3 8v12l-3 8-4 5-7 4h-15l-6-4-6-8-2-8v-8l3-8 4-6 6-4zm-1 6-6 5-2 8v11l3 7 5 4 9 1 7-4 3-6v-17l-4-6-5-3z" fill="#FEFEFE"/>
<path transform="translate(941,1070)" d="m0 0h8l1 34 1 5 11 1 8-4 2-6 1-30h7v45l-3 1-3-2v-2l-8 4h-16l-6-5-3-9z" fill="#FEFEFE"/>
<path transform="translate(1279,1069)" d="m0 0 4 1 3 4 6-4 4-1h9l8 4 3 5 1 5v32l-5 1-2-1-1-29-2-8-3-2h-10l-6 4-2 10-1 25-5 1-2-1v-45z" fill="#FEFEFE"/>
<path transform="translate(1385,1069)" d="m0 0h9l9 3 1 4-1 1-9-1h-12l-2 2v5l5 4 13 5 5 4 2 4v7l-4 6-6 3h-17l-5-2-1-1v-5l12 2h8l4-2 1-6-1-3-9-3-10-5-5-6v-6l4-6 5-3z" fill="#FEFEFE"/>
<path transform="translate(702,1069)" d="m0 0h10l7 2 2 2v4l-9-1h-11l-3 2v5l8 5 10 4 5 4 2 3v8l-4 6-7 3h-17l-5-3v-4l10 1h10l5-3 1-4-5-5-16-7-4-5-1-2v-6l6-7z" fill="#FEFEFE"/>
<path transform="translate(1044,1060)" d="m0 0 4 1v9h11l2 1v4h-13l1 33 3 2 9 1v4l-2 1h-10l-6-3-2-5-2-32-5-2 2-3 3-1z" fill="#FEFEFE"/>
<path transform="translate(877,1050)" d="m0 0 7 2-1 63-1 1h-5l-1-1v-64z" fill="#FEFEFE"/>
<path transform="translate(1116,1070)" d="m0 0h6v45l-5 1-2-1v-44z" fill="#FEFEFE"/>
<path transform="translate(1117,1053)" d="m0 0 5 1 1 5-3 3-4-1-1-1v-5z" fill="#FEFEFE"/>
</svg>
