<?xml version="1.0" encoding="UTF-8"?>
<svg version="1.1" viewBox="0 0 1600 1600" width="1280" height="1280" xmlns="http://www.w3.org/2000/svg">
<path transform="translate(1e3 315)" d="m0 0h8l1 8v21l-8 2-28 4 2 24v8l37-4 1 1 1 18v15l-9 2-22 3h-4l2 31 28-3h7l1 9v21l21-3 18-2-1-3-1-27 12-2 21-2h6l1 16v13l10-2 81-9 1 1 3 23v9l40-5h10l2 9 4 30v3l43-7h4l-2-9-5-33 3-10 8-2 99-17 15 16 7 8 9 11 13 83-1 4-14 3 10 50-1 4-14 4h-3l9 47 5 27v4l-19 4h-3l6 43v5l-12 2-164 17h-6l9 15 2 33v10l-4 1-41 3-10-15-2-41h-7l3 11 2 10 1 16-1 1-20 2-16 1 1 5 8 119-7 2-38 6h-3l1 3 1 27v13l-20 2-69 5h-9l11 153v5l-30 3-65 6h-12l-6-8-2-1-2 9-4 2-63 6-11-13-1-2-3-1v16l-2 1-103 7-9-10-3-3-2 2-1 10-1 1-162 16-62 6h-5l-37-37-7-8-16-16-1-30-4-2v32l-13 2-10 1h-11l-13-12-2-2 1-35 29-5 4 1 9 9 1-4 1-56 2-1 45-3-15-10-24-15-7-5v-35l1-64 1-8-53 10-22 4 6 7 8 8v29l-1 44-63 6-5-1-8-8-8-7-14-13 1-50-25 5-27 5-4-1-12-13-18-18-7-8-20-20-5-6v-26l1-43 1-26 51-10-12-12-8-7-16-16-8-7-12-12 4-127 1-20 19-6 6-1v-28l9-3 69-17 3-1 1-41 8-2 31-5 4 1 12 11 9 8v11l8-1 40-10h4l1-26 19-3h9l10 9 3 2v7l23-6 2-81 69-16 35-8h5l11 12 9 11 12 14 44 52 1 3 25-4 39-5h5v-60l2-1 20-2h12l1 2 2 70 1 18 29-4h4l-1-24-1-65v-38l1-1 25-3h6l1 13 2 58 1 17 24-3h9l1 1 1 21v14l25-3h5l-1-2-2-46v-13l1-1 55-7h9l1 10v18l23-4h7l-1-7-5-74v-11l46-8zm-29 135-24 3-2 1v30l26-3 10-2v-11l-2-18zm-193 21-24 4-4 1 2 31 22-2 12-2-1-23-1-9zm-134 21-29 4-3 1v24l1 9 33-5v-33zm104 17-28 5-3 1-1 16v21l22-4 14-3-1-26-1-10zm479 269m-9 1 4 1zm-8 1v1h5v-1zm-9 1v1h5v-1z" fill="#060924"/>
<path transform="translate(419,491)" d="m0 0h2v90l-32 8-132 31-6 1v39l12-3 99-21 6-1v28l15-4 26-6h2v150l-24 4h-5l1 4v22l-24 5-128 24-81 15h-2v-27l1-48 1-4 57-12 103-21 3-1 2-44 1-7-23 5-93 18-26 5h-5v-32l-21 4-2-1 3-123 5-3 19-5 1-29 9-3 66-16 60-15 74-18z" fill="#FDBD4A"/>
<path transform="translate(1e3 315)" d="m0 0h8l1 8v21l-8 2-28 4 2 24v8l37-4 1 1 1 18v15l-9 2-22 3h-4l2 31 28-3h7l1 9v21l21-3 18-2-1-3-1-27 12-2 21-2h6l1 16v13l10-2 81-9 1 1 3 23v9l40-5h10l2 9 4 30 1 4-58 9h-7l-4-28v-3l-4-2-6-5-37 5-27 4-11 2-31 4-23 4-11 1-3 1-19 2-53 8-8 1-1 27-7 1-1-2v-24l-5-1-4-2h-8l-30 5-93 15-21 3-18 3-1 1-17 2-25 4-24 4h-8l1-41 1-2-22 2-11 2h-4v-33l-9 2-25 3-1-35 17-3 46-6h5v-60l2-1 20-2h12l1 2 2 70 1 18 29-4h4l-1-24-1-65v-38l1-1 25-3h6l1 13 2 58 1 17 24-3h9l1 1 1 21v14l25-3h5l-1-2-2-46v-13l1-1 55-7h9l1 10v18l23-4h7l-1-7-5-74v-11l46-8zm-29 135-24 3-2 1v30l26-3 10-2v-11l-2-18zm-193 21-24 4-4 1 2 31 22-2 12-2-1-23-1-9zm-30 38-28 5-3 1-1 16v21l22-4 14-3-1-26-1-10z" fill="#0ACF5F"/>
<path transform="translate(1056,761)" d="m0 0h6l1 10v17l3-1 15-1h15l2 19 2 40 3 55v14l-30 3h-7v31l-2 1-52 4-53 4h-8l1 2 2 43 2 54 1 21v14l-1 1-54 6-27 2-8-136-6-111-3-54v-14l1-1 186-22z" fill="#2AE1F9"/>
<path transform="translate(635,813)" d="m0 0h4l1 7 2 48v16l-9 2-119 14h-6l1 9 1 34 53-7 41-6 14-1 1 1 1 13v13l2-1 24-2h7l1 21v113l-6 2-9 1 1 2 1 25-3 1-103 11-66 7-8 1h-13l-1-16v-12l-3 1-20 1v-30l1-19 35-4 51-5 26-3 29-3h5l-1-51-89 11-27 3-1-2-1-9v-9l-18 2h-7l-1-121 1-1 23-3h4v-27l1-1 29-4 95-14 19-3 21-3z" fill="#3DF4F9"/>
<path transform="translate(530,383)" d="m0 0h1v330l106-14h2l1 20v56l-7 2-192 32h-2l-1-7v-397l9-3 65-15z" fill="#FDBD4A"/>
<path transform="translate(1378,462)" d="m0 0 2 2 9 52-1 3-10 3 3 21 6 36-1 5-12 3h-3l3 12 9 51v4l-17 4h-5l5 29 1 12-9 2-69 8-4-1-6-35v-3l-11 1h-9l1 2 3 31v6l-1 1-64 7-18 1-2-16-1-20-13 2h-15l-1-2-6-57-1-2-7 1h-8l-1-2-5-57v-7l-9 2h-3l-3-24-2-18v-5l61-8 3 19 3 25 16-2 2 5 10 48 9-1 7-1-7-50 1-4 68-11 5 25 5 28 18-2-2-10-6-42v-4l17-4h3l-2-10-5-36v-5z" fill="#FDBD4A"/>
<path transform="translate(835,788)" d="m0 0h4l1 5 3 58 6 133 4 88 1 30-1 1-37 3h-18l-7-122-1-21-15 1v14l-11 1 1 2v11l-3 1h-11l-2-13h-8l-1-3v-10l-17 1 4 77 3 57v10l-3 1-42 3h-9l-1-16-3-105-4-139-1-46 7-2 32-5 1 1 1 16v13l19-2h12l1 16v14l28-3 4-1-2-30 7-2 19-3-2-28 1-1z" fill="#3DF4F9"/>
<path transform="translate(915,540)" d="m0 0h3l1 2 2 23 3-1 17-1 4 52v7l-22 10-3 2v2l26 7 1 3 4 51v10l-19 3h-6l2 20v7l-26 4-89 12-3-1-4-93-4-95v-6l7-2z" fill="#FD8349"/>
<path transform="translate(1056,761)" d="m0 0h3l-2 5-4 3-17 1v2h-3l-1 6-7 18-4 14-2 1-3 9 1 3h2l1 2 2 31 1 12v18l-3 3-12 2-12 1-1 1h-9l-2 4-11 16-8 9-11 8-7 3-5 4-21 7-6 3-22 5-14 5h-4l1 38 5 93-1 5-5 1-2-26-6-104-6-111-3-54v-14l1-1 186-22z" fill="#3DF4FA"/>
<path transform="translate(402,696)" d="m0 0h8l1 1v106l-24 4h-5l1 4v22l-24 5-128 24-81 15h-2v-8l9-5 2-57 6-2 122-25 28-6 5-3 2-3 1-7 3-54 5-1 51-7z" fill="#FE6F4E"/>
<path transform="translate(1e3 315)" d="m0 0h8l1 8v21l-8 2-28 4 2 24v8l37-4 1 1 1 18v15l-9 2-22 3h-4l2 31 28-3h7l1 9v21l21-3 18-2-1-3-1-27 12-2 21-2h6l1 16v13l10-2 81-9 1 1 3 23v9l40-5h10l2 9 4 30 1 4-58 9h-7l-4-28v-3l-4-2-6-5-37 5-27 4-11 2-31 4-23 4-11 1-3 1-19 2-53 8h-4l-2-10-2-25v-7l4-2 30-4h3l-2-22v-7l-34 4v14h-1l-1-27-5-73-2-31v-11l46-8z" fill="#0DCC39"/>
<path transform="translate(787,559)" d="m0 0h2l2 29v14l-57 9-15 2 1 4 1 28 9-2 56-7h4l1 3 2 28v7l-1 1-64 8h-6l1 4v30l10-2 60-7 5 1 3 38v7l-1 1-81 11-40 5-13 2h-10l-1-95v-96l97-17z" fill="#FE6F4E"/>
<path transform="translate(1089,518)" d="m0 0 2 1 4 35v7l-26 4-37 5h-7l3 30v6l61-7h11l2 16 1 23-70 8-2 1 2 28v7l67-7h4l2 14 2 22v6l-24 3-90 10-24 2-1-3-6-93-5-81v-17l71-11z" fill="#FE8349"/>
<path transform="translate(1135,600)" d="m0 0 8 1 29 7 20 4 22 2 14 2 30-1 53-6 39-4h25l8 45v4l-17 4h-5l5 29 1 12-9 2-69 8-4-1-6-35v-3l-11 1h-9l1 2 3 31v6l-1 1-64 7-18 1-2-16-1-20-13 2h-15l-1-2-6-57-1-2-7 1h-8l-1-7 6-3h3v-14z" fill="#FE9E42"/>
<path transform="translate(438,405)" d="m0 0h1l1 395 6-3h2v-91l1-18 21-3 53-10h8v38l106-14h2l1 20v56l-7 2-192 32h-2l-1-7z" fill="#FE6F4E"/>
<path transform="translate(653,974)" d="m0 0h1v113l-6 2-9 1 1 2 1 25-3 1-103 11-66 7-8 1h-13l-1-16v-12l-3 1-20 1v-5l6-2v-16l1-19 7-2 125-13 14-1 1-58 8 1 11 3 11 2 2 1 33 4 9 2z" fill="#07BBF4"/>
<path transform="translate(1088,436)" d="m0 0h6l1 16v13l10-2 81-9 1 1 3 23v9l40-5h10l2 9 4 30 1 4-58 9h-7l-4-28v-3l-4-2-6-5-37 5-27 4-11 2-31 4-23 4-11 1-7 1 3-1-4-35v-5h-5v-1l39-5h3l-1-3-1-27 12-2z" fill="#0DCB38"/>
<path transform="translate(915,540)" d="m0 0h3l1 2 2 23 3-1 17-1 4 52v7l-11 5-11-1-23 4h-7l1-3-7 3-20 3h-14l-1-3 4-4 1-3 27-4h3l-3-30v-6l-27 4h-5l1 6v16l-31 6-6 1 1 47 2 57v21l-8 3-1-1-2-35-6-144v-6l7-2z" fill="#FDBD4A"/>
<path transform="translate(787,559)" d="m0 0h2l2 29v14l-57 9-15 2 1 4 1 28 9-2 49-6h7l-5 10-1 1-46 6h-15l-2-1h-3-9l-19 4-9 3-10 1-1 21-1 80-9 3-1-87v-96l97-17z" fill="#FDBC4A"/>
<path transform="translate(1161,318)" d="m0 0h6l15 27 1 4 4 69v12l-67 9h-5l-8-13-10-17-1-6-4-66v-7l7-2z" fill="#FE339F"/>
<path transform="translate(1293,656)" d="m0 0h13l26 2 16 4 12 5 3 2 4 26v4l-9 2-69 8-4-1-6-35v-3l-11 1h-9l1 2 3 31v6l-1 1-64 7-18 1-2-16-1-20-13 2h-15l-1-2v-7l9-1v-12l4-2 14-2 14-1 65-1z" fill="#FE6F4E"/>
<path transform="translate(1093,786)" d="m0 0h3l2 19 2 40 3 55v14l-30 3h-7v31l-2 1-52 4h-13l2-1 1-4 5-6 3-6 6-7 6-11 4-9 5-8 5-14 7-22 7-14 4-14 4-10 7-14 9-16v-2l6-1h9l2-6z" fill="#07BBF4"/>
<path transform="translate(1281,889)" d="m0 0h8l5 12 11 32 2 30v11l-76 6h-7l-11-18-11-16v-50l18-2z" fill="#0CCC37"/>
<path transform="translate(1340,770)" d="m0 0h11l11 21v46l5-1 9 14 1 3 1 23v18l-35 3h-10l-10-15-1-27-3 1-14 1-12-21-2-10v-51l28-3z" fill="#910A70"/>
<path transform="translate(523,675)" d="m0 0h8v38l106-14h2v19l-9 1-21 5-45 7-26 7-28 8-32 4-22 4h-7v32h-1v-80l1-18 21-3z" fill="#FE8349"/>
<path transform="translate(1089,518)" d="m0 0 2 1 4 35v7l-26 4-37 5h-7v13l-12-1-37 5h-4v13l6 107v14l-9 2-2-22-9-146v-17l71-11z" fill="#FDBD4A"/>
<path transform="translate(952,987)" d="m0 0h1l1 15 2 54 1 21v14l-1 1-54 6-27 2v-6l5-2v-24l-2-41v-19l12-2 23-3 23-5 12-3h4z" fill="#07BBF4"/>
<path transform="translate(947,657)" d="m0 0h1l3 40v10l-19 3h-6l2 20v7l-26 4-89 12-3-1v-9l8-2 1-53 16-5 17-5 7 1 2 15v5h4l-1 4-3 5 29-3 8-2 3-2 1-3 1-23 5-2 15-3 22-6h2z" fill="#FE6F4E"/>
<path transform="translate(976,661)" d="m0 0 18 1 32 3 5 1v-5h1l1 21 67-7h4l2 14 2 22v6l-24 3-90 10-24 2-1-9 9-2-2-31z" fill="#FD6F4E"/>
<path transform="translate(613,521)" d="m0 0h1l1 8 27-4h8l4-2 16-2h14l-1 39-1 4 4 1-37 6h-6l1 15 1 65v34l-20 2h-12z" fill="#008159"/>
<path transform="translate(847,964)" d="m0 0h1l5 108 1 30-1 1-37 3h-18l1-5 5-2-2-25-3-58v-38l26-8 16-4h5z" fill="#07BBF4"/>
<path transform="translate(775,345)" d="m0 0h6l1 13 2 58 1 17 24-3h9l1 1 1 24v19l1 23-9 3-18 3h-6l-2-6-1-26-30 5h-4l-1-24-1-65v-38l1-1z" fill="#63EB3C"/>
<path transform="translate(1059,761)" d="m0 0h3l1 10v17l3-1 15-1h12l-4 8-14 2-5 10-8 14-8 20-5 16-7 14-6 21-5 12-5 8-3 7-7 12-7 9-3 6-4 4-2 5-29 2h-9l2-1 2-5 10-6 3-1 1-3 8-6 10-13 9-14 8-16h2v-2l5-3v-18l-2-24-1-21h-2v-2l-2-1 4-12 2-2 8-24 4-10h3v-2l17-2 5-5z" fill="#1CD4F9"/>
<path transform="translate(702,390)" d="m0 0h12l1 2 2 75v49l-5 2-27 3-3-3-2-28-1-1-13 1-7 1h-10l-3-4v-23l-1-7 30-4h5v-60l2-1z" fill="#64EC3B"/>
<path transform="translate(402,696)" d="m0 0h8l1 1v70l-1-3h-27l-15 1-41 7-10 4h-6l4-2 5-3 2-3 1-7 3-54 5-1 51-7z" fill="#FE8448"/>
<path transform="translate(636,458)" d="m0 0h10l1 6v23l2 3h10l14-2h6l2 2 2 30 29-3 4-1v-49h1l1 13 29-4h4l1 4 1 27 4-1h11v1l-16 2v5h-1v-5l-13 3-17 3h-3v36l32-6h2l1 8 3 1-17 2-25 4-24 4h-8l1-41 1-2-22 2-11 2h-4v-33l-9 2-25 3-1-35 17-3z" fill="#05A867"/>
<path transform="translate(1322,632)" d="m0 0h36l21 3 1-2 3 17v4l-17 4h-5l1 4v7l-14-6-16-4-26-2-52 1-65 1-22 2-9 2-2 4-2-21v-7l2-4 45 2h53l35-3z" fill="#FE8349"/>
<path transform="translate(786,636)" d="m0 0h4l1 3 2 28v7l-1 1-64 8h-6v21l-22 4-27 2-6 1-1 51h-1v-80l1-22 11-1 17-5 11-2h9 2l2-1 1 2h15l46-6z" fill="#FE8349"/>
<path transform="translate(1184,454)" d="m0 0 3 1 3 23v9l40-5h10l2 9 4 30 1 4-58 9h-7l-4-28v-3l-4-2-6-5-22 3h-4l-4-28v-11l10-2z" fill="#008359"/>
<path transform="translate(1098,794)" d="m0 0h5l2 6 4 71 2 39v14l-14 2-23 1v31l-1 1-113 9 4 98 1 21v14l-1 1-33 4-37 4h-12l-1-1-1-10 76-8v-14l-2-43-2-54-1-23 35-3 49-4 31-2v-31l27-3h10l-5-85-1-34z" fill="#0E4E9B"/>
<path transform="translate(313,905)" d="m0 0h2v75l-6 2-48 5-11 1 1-72 15-3z" fill="#81FA2E"/>
<path transform="translate(315,905)" d="m0 0 7 6 10 10 3 2 6 7 8 8v29l-1 44-63 6-5-1-8-8-8-7-13-12 3-2 60-7z" fill="#0C5A2E"/>
<path transform="translate(414,662)" d="m0 0h5v150l-3 2-24 4-1 25-12 3-214 40-10 1-1-1v-10l6-2 60-11 47-9 113-21h3l-1-26 23-4h6v-140z" fill="#5D0E0F"/>
<path transform="translate(1011,828)" d="m0 0h2l3 32 1 11v12l-27 3-38 3h-13l-4-53 57-6z" fill="#060924"/>
<path transform="translate(438,952)" d="m0 0 18 4 20 5 7 4 16 5 12 4 18 5 6 3 14 3 8 4 9 1 6 4-1 6-1-4-89 11-27 3-1-2-1-9v-9l-18 2h-7l1-5 5-3 1-28 1-3z" fill="#29E0F9"/>
<path transform="translate(903,394)" d="m0 0h9l1 10v17l-1 4 1 29-30 4-6 2-20 3h-7l-1-2-2-46v-13l1-1z" fill="#82FA2E"/>
<path transform="translate(1289,890)" d="m0 0 2 3 14 40 2 30v11l-76 6h-7l-11-18-10-15v-1l22-2 61-5h6l-2-22-1-16z" fill="#034C4E"/>
<path transform="translate(1166,319)" d="m0 0 4 4 12 22 1 4 4 69v12l-67 9h-5l-8-13-10-17 3-2 71-9-1-19z" fill="#920B6F"/>
<path transform="translate(411,493)" d="m0 0h5l-6 11-18 5-64 16-65 16-54 14-14 5-9 6h-2v16l-3 7-4 3-14 4h-3l-2 38-2 3h-6l-1 2v-50l5-3 19-5 1-29 9-3 66-16 60-15 74-18z" fill="#FEE097"/>
<path transform="translate(653,962)" d="m0 0h8l1 35v101l-14 2 1 27-2 1-54 6-132 14h-6l-1-1v-9h-6v-1l41-4 25-3 103-11 24-2-2-27 14-3z" fill="#0E4E9B"/>
<path transform="translate(1025,577)" d="m0 0h1l2 23v6l61-7h11l2 16v18l-3 1-12-3-21-5-26-7-2-2h-1-44l-18 2-2-1-2-18v-14l13-1 30-4 9 1 2 1z" fill="#FE9E42"/>
<path transform="translate(936,418)" d="m0 0h7l2 23 1 27v24l3 35-4 1-1 27-7 1-1-2v-24l-5-1-8-3-2-10-3-24-2-6-2-2 1-2-1-15-3-12h2l-1-6-1-27 2-1 11-1z" fill="#0ACE60"/>
<path transform="translate(907,454)" d="m0 0h6l-1 2 3 11 1 16 3 9 4 34-29 5-5-1-5-40-21 4h-9l-2-8-2-17v-5l-3-1 30-4 6-2z" fill="#0DCC37"/>
<path transform="translate(1056,761)" d="m0 0h3l-2 5-4 3-169 20-19 2 10 185 6 112-1 5-5 1-2-26-6-104-6-111-3-54v-14l1-1 186-22z" fill="#D4F8F3"/>
<path transform="translate(715,1044)" d="m0 0h10l2 1 3 57v10l-3 1-42 3h-9v-5l5-3h2l-1-9v-51l3-2h12l14-1z" fill="#07BBF4"/>
<path transform="translate(1013,476)" d="m0 0h7l3 25 1 15-11 2-60 9h-4l-2-10-2-25v-7l4-2 23-3 33-3z" fill="#63EB3B"/>
<path transform="translate(1e3 315)" d="m0 0h8l1 8v21l-8 2-28 4 2 25-1 5-27 2h-7l-1-1-3-44v-11l46-8z" fill="#62EB3C"/>
<path transform="translate(1230,778)" d="m0 0h3l9 15 2 33v10l-4 1-41 3-10-15-2-41 7-2 29-3z" fill="#05A867"/>
<path transform="translate(426,500)" d="m0 0 3 1v90l-15 4-131 31-22 5h-2v27l-8 2v-39l15-4 152-36h3v-79z" fill="#5D0E0F"/>
<path transform="translate(1365,836)" d="m0 0 3 1 8 13 1 3 1 23v18l-35 3h-10l-10-15-1-23v-18z" fill="#FF32A0"/>
<path transform="translate(775,345)" d="m0 0h6l1 13 2 58v9l-1 8-29 4h-3v15h-1l-1-65v-38l1-1z" fill="#E1FB60"/>
<path transform="translate(1385,471)" d="m0 0 3 2 9 53-1 3-10 3 3 21 6 35v5l-8 3-7 1 11 62v5l-16 4-5 1 5 35v5l-1 1-31 4-44 5h-7l-1-2v-8l-2-1 76-9h2l-5-30-1-11 18-4h4l-9-49-3-18 15-4-2-16-7-42 1-4 10-3-6-37-1-9z" fill="#5D0E10"/>
<path transform="translate(840,797)" d="m0 0h7l1 3 6 129 6 134 2 40v9l-7 2-42 3h-8l-1-3v-7h-6v-1l43-3 12-1-1-30-5-108-6-135-1-20z" fill="#0D4D9A"/>
<path transform="translate(639,708)" d="m0 0h8l1 18v59l-6 2-155 26-37 6h-5v-11l7-2 187-31z" fill="#5D0E10"/>
<path transform="translate(653,974)" d="m0 0h1v58l-1 14-9-1-20-3-10-2-12-3h-7l-10-3h-5l-1 10h-1v-49l8 1 11 3 11 2 2 1 33 4 9 2z" fill="#29E0FA"/>
<path transform="translate(323,711)" d="m0 0h2l1 2v13l-2 35-2 9-4 4-26 6-132 27-2 57-8 5h-2v-19l1-48 1-4 57-12 103-21 3-1 2-44 2-4z" fill="#FDC082"/>
<path transform="translate(880,490)" d="m0 0h4l2 10 4 31-5 2-60 9-2-15-2-22v-6l4-2 21-3 17-1z" fill="#05A767"/>
<path transform="translate(338,1047)" d="m0 0 4 1 19 14 1 1-1 34-21 2-21 1-19-13v-23l1-12z" fill="#0A1129"/>
<path transform="translate(715,635)" d="m0 0h5l1 1v9l9-2 49-6h7l-5 10-1 1-46 6h-15l-2-1h-3-9l-19 4-9 3-10 1-1 21-1 80-9 3v-121l1-1h6v-2h3v3l37-7z" fill="#FE9E42"/>
<path transform="translate(536,392)" d="m0 0h3v321h-8v-320z" fill="#5D0E0F"/>
<path transform="translate(847,964)" d="m0 0h1l2 40v13h-3l-12 1-16 2-14 5h-3l3 64v10h-1l-2-25-3-58v-38l26-8 16-4h5z" fill="#2AE1F9"/>
<path transform="translate(402,696)" d="m0 0h8l1 1v29h-9l-44 6-26 3h-6v-28l5-1 51-7z" fill="#FF9F42"/>
<path transform="translate(1376,616)" d="m0 0h1l2 11v8l-12-1-9-1h-36l-33 2-35 3h-53l-45-2-2 3-2-17 6-1 36 5 18 2h33l39-3 42-4 15-1h26l9 1z" fill="#FE9346"/>
<path transform="translate(523,675)" d="m0 0h8v30l-12 1-36 7-29 5h-5v-30l21-3z" fill="#FF9F42"/>
<path transform="translate(636,458)" d="m0 0h10l1 6v23l2 3h10l14-2h6l2 2 2 30-29 4-6 2-1-1v-33l-9 2-25 3-1-35 17-3z" fill="#13CE39"/>
<path transform="translate(635,813)" d="m0 0h2l-2 4-3 4-87 13-83 12h-2l1 8v14l-3 5-8 2-16 2v107l-5 3-2 2-1-118 1-1 23-3h4v-27l1-1 29-4 95-14 19-3 21-3z" fill="#D6F7F3"/>
<path transform="translate(640,822)" d="m0 0h7l1 4 2 56v12l-9 2-82 10-42 5v13l1 19-9 1-1-44 116-14 18-2-2-43z" fill="#0D4E9A"/>
<path transform="translate(951,959)" d="m0 0h1l1 28-1 8-16 4-23 5-32 4h-3l3 60v20h-1l-4-75v-29l16-4 19-5 12-2 10-6 14-5h3z" fill="#1DD5F9"/>
<path transform="translate(947,650)" d="m0 0 7 2 1 1 4 53v10l-3 2-22 3 2 18v8l-9 2-65 9-39 5h-6l-2-11 42-6 67-9h4l-2-17v-10l19-3h6l-4-50z" fill="#5D0E10"/>
<path transform="translate(392,1100)" d="m0 0 4 1 9 9 2-4v10l4 2v33l-13 2-10 1h-11l-13-12-2-2 1-35z" fill="#0B484B"/>
<path transform="translate(698,804)" d="m0 0h6l-4 7-9 2-16 3v19l4 142 3 123v8l-6 3-1-11-3-105-4-139-1-46 7-2z" fill="#D4F9F5"/>
<path transform="translate(1059,761)" d="m0 0h3l1 10v9l-3-1-8 16-6 13-4 14-5 12-4 9-1 2-2 12-4 8-1 1-1 21-3 3-4-1 5-3v-18l-2-24-1-21h-2v-2l-2-1 4-12 2-2 8-24 4-10h3v-2l17-2 5-5z" fill="#2AE1FA"/>
<path transform="translate(1075,1017)" d="m0 0h14l5 12 3 9 1 20-35 3h-6l-7-10-4-6v-25l4-1z" fill="#0ABEF4"/>
<path transform="translate(798,716)" d="m0 0 7 1 1 1 3 38v8l-4 2-47 6-74 10-16 2h-5l-1-1v-10l26-4 82-11 30-4-1-20z" fill="#5D0E0F"/>
<path transform="translate(723,985)" d="m0 0h1l2 37v23h-11l-4 1-18 1h-8l-3 1 1 60h-1l-1-8-1-42v-47l8-4 21-3 14-3z" fill="#2BE2FA"/>
<path transform="translate(1132,460)" d="m0 0h6l4 34v5l-38 6h-8l-4-30 1-8 7-2 9-2 15-2z" fill="#63EB3B"/>
<path transform="translate(1105,684)" d="m0 0h7l2 14 2 22v7l-10 2-119 13h-11l-2-11 129-14h5l-3-28z" fill="#5D0E10"/>
<path transform="translate(730,967)" d="m0 0h10l1 13-1-2-8 1v17l6 118v8l-2 1-37 3h-16l-1-1v-9l3-1 45-3-2-28-5-99v-17z" fill="#0D4E9A"/>
<path transform="translate(903,394)" d="m0 0h9l1 10v17l-30 3-20 3-15 1-1-13v-13l1-1z" fill="#E3FB60"/>
<path transform="translate(313,713)" d="m0 0h3v7l-1 5-23 5-113 22-4-1-1-11 129-25z" fill="#5D0E0F"/>
<path transform="translate(281,472)" d="m0 0h3v23l-1 15-18 5-21 5h-2v-41l8-2z" fill="#82FA2F"/>
<path transform="translate(1089,599)" d="m0 0h11l2 16v18l-3 1-12-3-21-5-26-7-2-2v-1h-10l-2-1 4-8 6-2z" fill="#FE9346"/>
<path transform="translate(521,385)" d="m0 0h5l-4 9-1 2-69 17h-3l-1 76-2 4-5 2-1 11h-1v-102z" fill="#FEE198"/>
<path transform="translate(783,503)" d="m0 0 4 1 1 12v10l2 21-8 2-25 4h-4l-1-2-1-37 1-5 8-2 7-1v-1z" fill="#63EB3C"/>
<path transform="translate(942,587)" d="m0 0h1l2 28v7l-11 5-11-1-23 4h-7l2-3 1-6v-23l7-2 15-1 17-3h6z" fill="#FE9E42"/>
<path transform="translate(574,996)" d="m0 0 3 1v52l-3 4-11 2-125 13-6 1-2 35-6 2v-25l1-19 35-4 51-5 26-3 29-3h5l-1-47z" fill="#D6F8F3"/>
<path transform="translate(1350,771)" d="m0 0 4 4 8 16v46l-34 4h-6v14l-3 1-14 1-12-21-1-4 48-3h11l-1-48z" fill="#08102D"/>
<path transform="translate(1162,774)" d="m0 0h13l1 15v13l-44 4h-7v-29z" fill="#07BBF4"/>
<path transform="translate(320,707)" d="m0 0 2 1-2 7-4 2v-4l-23 5-93 18-26 5h-5l1-7 8-5 2-2 18-4 30-5 79-9 9-1z" fill="#FE9D42"/>
<path transform="translate(238,790)" d="m0 0h5l-4 2-21 5-10 6-9 6-5 4-4 3h-2l-2 4-7 8-11 19-7 13-3 9 1 3 3 2-12 3h-2v-8l9-5 2-57 6-2z" fill="#FE8349"/>
<path transform="translate(910,486)" d="m0 0h7l2 6 4 34-29 5-5-1-5-40 1-1z" fill="#64EC3B"/>
<path transform="translate(642,525)" d="m0 0h3l2 7 1 33-2 3-26 3h-6v-41l7-2z" fill="#0DCC37"/>
<path transform="translate(1268,670)" d="m0 0h11l2 11-13 1 3 31v8l-25 3-56 6-4-1-1-10 1-1 68-7 8-1-1-18-2-21z" fill="#5D0E10"/>
<path transform="translate(338,1047)" d="m0 0h2v36l-35 3h-5v-22l1-12z" fill="#05A967"/>
<path transform="translate(1084,467)" d="m0 0h7l4 32v6h6v1l-39 5h-1l-3-29v-10l5-2z" fill="#008359"/>
<path transform="translate(968,583)" d="m0 0h2l1 2 7 122v14l-9 2-2-22-6-100v-13l3-4z" fill="#F3AE82"/>
<path transform="translate(934,485)" d="m0 0h11l4 39v3l-4 1-1 27-7 1-1-2v-24l-5-1-8-3-2-10-3-24-1-5z" fill="#0CCA37"/>
<path transform="translate(793,568)" d="m0 0 4 1 2 29v14l-17 3-51 8-3 1v20l-7 1-2-28v-4l15-3 52-8h5l-1-14v-19z" fill="#5D0E0F"/>
<path transform="translate(1103,607)" d="m0 0 5 1 2 17 1 13v10l-13 2-55 6h-4l1 14v12h-7l-2-21-1-15 12-2 53-6h8l-2-23v-7z" fill="#5D0E10"/>
<path transform="translate(814,607)" d="m0 0h1l3 83 1 30v21l-8 3-1-1-2-35-3-75v-18l3-3 5-2z" fill="#F3AE82"/>
<path transform="translate(1095,527)" d="m0 0 4 1 4 36v7l-10 2-59 8 1 18 1 7h-8l-2-17-1-19 66-9h4l-3-25v-8z" fill="#5D0E10"/>
<path transform="translate(886,657)" d="m0 0h4l1 2 3 27v9l-19 3-14 1-2-16-1-11v-11l11-2z" fill="#060A25"/>
<path transform="translate(791,645)" d="m0 0h7l1 1 2 31v7l-5 2-64 8-1 22-8 1-1-34 70-9z" fill="#5D0E10"/>
<path transform="translate(578,1014)" d="m0 0 13 4 22 4 15 3 24 3 1 2v16l-9-1-20-3-10-2-12-3h-7l-10-3h-5l-1 10h-1z" fill="#1CD4FA"/>
<path transform="translate(975,375)" d="m0 0h1l3 29v11l-30 2-6 1-1-7-1-17v-12l7-1 27-1z" fill="#05A966"/>
<path transform="translate(716,467)" d="m0 0h1l1 13 29-4h4l1 4 1 27 4-1h11v1l-16 2v5h-1v-5l-13 3-17 3h-3v16h-1l-1-36z" fill="#0DD062"/>
<path transform="translate(845,991)" d="m0 0 4 1 1 12v13h-3l-12 1-16 2-14 5h-3l3 64v10h-1l-2-25-2-40v-32l5-2 12-2z" fill="#1DD5F9"/>
<path transform="translate(786,636)" d="m0 0h4l1 3v12h-10l-27 6-15 3-10 3-50 10-12 2-1-1v-14l11-1 17-5 11-2h9 2l2-1 1 2h15l46-6z" fill="#FE9346"/>
<path transform="translate(563,996)" d="m0 0h7v11l-71 9-33 4h-6l-1-10-4-1 75-9z" fill="#0E4E9B"/>
<path transform="translate(711,483)" d="m0 0h4l2 12v21l-5 2-27 3-3-3-2-28-1-1-13 1-7 1h-8v-1l21-3h8 2v-1z" fill="#80FA2E"/>
<path transform="translate(775,561)" d="m0 0h7l-3 10-57 10-54 9-9 1-3-1v-7l4-2z" fill="#FEDF97"/>
<path transform="translate(877,583)" d="m0 0h7l2 16 1 20-15 3-18 2-2-37z" fill="#060A25"/>
<path transform="translate(980,429)" d="m0 0h1l1 19 28-3h7l1 9v21l-5 2-27 3h-7l3-1-2-22v-7l-3-1 2-2z" fill="#0CD060"/>
<path transform="translate(1011,828)" d="m0 0h2l1 15-1-4-2 1-57 6h-10l2 26v16h6v1h-13l-4-53 57-6z" fill="#0E4E9A"/>
<path transform="translate(638,648)" d="m0 0h6l1 3v34l-20 2h-12v-34l9-2z" fill="#007F56"/>
<path transform="translate(1367,837)" d="m0 0 4 5 5 8 1 3 1 23v18l-35 3h-10l-8-12-1-4 31-3 14-1-2-26z" fill="#930C6F"/>
<path transform="translate(663,641)" d="m0 0h3v41l-1 80-9 3v-121l1-1h6z" fill="#F3AF84"/>
<path transform="translate(1e3 315)" d="m0 0h8l1 8v21l-8 2-26 4h-3l-2-18v-11l6-2z" fill="#0ED160"/>
<path transform="translate(675,453)" d="m0 0 4 1 2 31 3 3h-4-8l-23 3-3-4v-23l-1-7z" fill="#E2FB5F"/>
<path transform="translate(1233,781)" d="m0 0 5 5 4 7 2 33v10l-4 1-41 3-9-14v-2l10-2 26-2h9l-1-6-1-18z" fill="#0C5C30"/>
<path transform="translate(673,488)" d="m0 0h6l2 2 2 30-29 4-6 2-1-1v-32l4-2z" fill="#0CCC37"/>
<path transform="translate(853,608)" d="m0 0h1v16h3l-1 4-6 3 2 2 10 1v2l-5 2-4-1-14 4-7 1-9 1-6 1-1 2-1-26 1-4 16-4z" fill="#FE9E42"/>
<path transform="translate(392,1100)" d="m0 0 3 1-1 36-27 3h-5l1-35z" fill="#FD6F4F"/>
<path transform="translate(408,711)" d="m0 0 3 1v14h-9l-44 6-26 3h-6v-13l40-5z" fill="#FF9446"/>
<path transform="translate(528,690)" d="m0 0 3 1v14l-12 1-36 7-29 5h-5v-14l26-4z" fill="#FF9446"/>
<path transform="translate(702,390)" d="m0 0h12l1 2v29l-18 2h-17v-30l2-1z" fill="#E3FC60"/>
<path transform="translate(835,788)" d="m0 0h2l-2 4-3 4-23 3h-7l1 15v11l-5 5-20 3 1 15v12l-5 5-25 3h-8l-2-2 2-4 10-2 21-3-2-30 7-2 19-3-2-28 1-1z" fill="#D4F8F4"/>
<path transform="translate(901,421)" d="m0 0h11l1 33-21 3h-9l-2-8-2-18v-6l4-2z" fill="#64EC3A"/>
<path transform="translate(775,345)" d="m0 0h6v34l-24 3-7 1v-28l6-3 3-4h6v-2z" fill="#FDBF4A"/>
<path transform="translate(447,685)" d="m0 0h1l1 21-1 91-9 4v-106l1-7 7-1z" fill="#F3AF84"/>
<path transform="translate(629,700)" d="m0 0h4l-3 9-1 2-90 12h-7l-2-1v-2h2l2-5 5-3z" fill="#FDC082"/>
<path transform="translate(935,453)" d="m0 0h10l1 15v17l-20 2h-9l-3-3 1-2-1-15-1-11 5-2z" fill="#00845A"/>
<path transform="translate(631,617)" d="m0 0h13v31l-30 5v-34z" fill="#0E4E9B"/>
<path transform="translate(966,321)" d="m0 0h5l2 24-1 4-17 2-15 1-2 2-1-17v-11z" fill="#FCC14B"/>
<path transform="translate(1088,1017)" d="m0 0 2 1 7 20 1 20-35 3h-6l-7-10-3-5v-2l18-2 12-1h13l-1-5z" fill="#090D2B"/>
<path transform="translate(724,1015)" d="m0 0h1l1 7v23h-11l-4 1-18 1h-8l-3 1v7h-1v-28l10 1 18-4h15z" fill="#1BD3F9"/>
<path transform="translate(1023,599)" d="m0 0 5 1v6l4 1h-2l-1 4-3 4 11 1v1h-44l-18 2-2-1-1-7v-8l31-3z" fill="#FE9346"/>
<path transform="translate(1017,829)" d="m0 0h2l1 3 3 36v18l-3 3-12 2-59 5h-9l-1-4 3-3 32-3 37-3h6l-4-45 1-7z" fill="#D4F8F4"/>
<path transform="translate(306,906)" d="m0 0h6v6l-6 2-45 8h-3v52l-1 11-6-1-1 4 1-72 15-3z" fill="#ABEACD"/>
<path transform="translate(1281,889)" d="m0 0h5l-2 7-18 2-48 4-8 1-1 40-1 1h-5l-1 2v-50l18-2z" fill="#ABEBCE"/>
<path transform="translate(794,963)" d="m0 0 3 1 2 32 5 94v9l-6 3-4-68-3-50v-19z" fill="#ACEBCE"/>
<path transform="translate(875,546)" d="m0 0h11l1 7-12 3-36 6-25 4-2 1h-8l-2-3v-6l7-2z" fill="#FEDE96"/>
<path transform="translate(943,602)" d="m0 0h1l1 20-11 5-11-1-23 4h-7l2-3 3-13 16-2 26-4h3z" fill="#FE9346"/>
<path transform="translate(462,988)" d="m0 0 7 1 22 4 18 5 7 2 1 2-12 2-50 6-2-2 1-4 3-2h3v-13z" fill="#1BD3F9"/>
<path transform="translate(941,572)" d="m0 0h7l1 1 3 38 1 20-4 3-14 6-8-1-8-3 1-3 16-8 9-3-2-20z" fill="#5D0E10"/>
<path transform="translate(614,929)" d="m0 0h2l-2 5-3 3-93 13h-9l-1-2 2-5 53-7 41-6z" fill="#D5F6F2"/>
<path transform="translate(378,463)" d="m0 0h8v9l4 2 2 2v7l-6 2-18 5-10 1 1-25z" fill="#0DCC62"/>
<path transform="translate(898,658)" d="m0 0h2l2 13 1 10v17l-3 5-4 2-22 3h-13l4-10 25-3h4l-3-26 1-5 5-5z" fill="#F3AE82"/>
<path transform="translate(873,955)" d="m0 0h1l7 133-1 5-5 1-2-26-3-55v-34l2-2v-12z" fill="#ABEBCE"/>
<path transform="translate(427,875)" d="m0 0 6 1 1 108-5 3-2 2z" fill="#D4FAF6"/>
<path transform="translate(1081,600)" d="m0 0h15l-5 9-7 2-46 5h-10l-2-1 4-8 6-2z" fill="#FEC182"/>
<path transform="translate(779,637)" d="m0 0h7l-5 10-1 1-46 6h-15v-4l3-3 1-3z" fill="#FEC181"/>
<path transform="translate(890,596)" d="m0 0h5l2 13v12l-3 6-7 3-20 3h-14l-1-3 4-4 1-3 27-4h3l-1-7v-11l2-4z" fill="#FEC282"/>
<path transform="translate(785,709)" d="m0 0h7l-4 10-30 4-26 3h-6l-2-1 2-5 3-4 12-2z" fill="#F3AD82"/>
<path transform="translate(1289,890)" d="m0 0 2 3 14 40 2 30v10l-2-3-13-29-2-24-1-16z" fill="#0C5D31"/>
<path transform="translate(1340,770)" d="m0 0h6l-2 2h-3v2l2 1-11 2-31 3-3 2v50h-6l-1-13v-44l28-3z" fill="#FD7251"/>
<path transform="translate(1076,520)" d="m0 0h8l-3 10-50 7h-12l-2-4 1-1-3-2 8-2z" fill="#FEDF97"/>
<path transform="translate(1090,676)" d="m0 0h8l-3 10-45 5h-17l2-4 3-5 13-2z" fill="#F3AD83"/>
<path transform="translate(323,711)" d="m0 0h2l1 2v13l-2 35-1 7-6 5-5-2-3-5 4-2 2-44 2-4z" fill="#FEC182"/>
<path transform="translate(782,963)" d="m0 0h8l1 11h-8v14l-4 1h-7l1 3v10l-1 1h-14l-1-1v-9l8-1-1-13 11-1v-14z" fill="#0D4D9A"/>
<path transform="translate(886,657)" d="m0 0h4l1 2v9l-11 2-14 1 2 21v6l-7 1-2-16-1-11v-11l11-2z" fill="#5E0E11"/>
<path transform="translate(284,473)" d="m0 0 8 6 10 10 4 3v11l2 2-22 5h-3v-15z" fill="#0F5B30"/>
<path transform="translate(877,583)" d="m0 0h7l1 11-24 4 1 25-8 1-2-37z" fill="#5D0E10"/>
<path transform="translate(1148,508)" d="m0 0h10l-3 9-1 1-40 5-1 4-8-2-2-6v-5z" fill="#FEDF97"/>
<path transform="translate(846,624)" d="m0 0h11l-1 4-6 3 2 2 10 1v2l-5 2-4-1-14 4-7 1-9 1-6 1-1 2v-16z" fill="#FE9346"/>
<path transform="translate(149,802)" d="m0 0h1l1 13 4-2h3v-5h1v33l-1 23-8 5h-2v-19z" fill="#F3AE82"/>
<path transform="translate(1223,779)" d="m0 0h9l-3 7-2 1-28 3h-4l1 31-3 2h-4l-2-35 1-5z" fill="#ACEBCF"/>
<path transform="translate(1365,836)" d="m0 0 2 1-5 7-32 4v31l-1 1h-5l-1 2-1-23v-18z" fill="#FEDC95"/>
<path transform="translate(281,472)" d="m0 0 3 1h-2v6l-13 3-20 3v24l-1 10-6 1v-41l8-2z" fill="#FEE59E"/>
<path transform="translate(968,583)" d="m0 0h2l1 2 2 34v15l-2-3-3 6-4 2-1-3-2-35v-13l3-4z" fill="#FEC182"/>
<path transform="translate(1150,621)" d="m0 0h2l2 13 3 33v8l-9 1-1-2-4-39 1-7 5-5z" fill="#FEC282"/>
<path transform="translate(1257,537)" d="m0 0h7l-1 5h-2l1 3-29 6-14 3-9-1-3-4 1-4z" fill="#FEDE96"/>
<path transform="translate(663,641)" d="m0 0h3v41l-1 8-4 1-5-3v-44l1-1h6z" fill="#FFC483"/>
<path transform="translate(331,1048)" d="m0 0h7l1 6-6 2-25 3v15l-1 8-1 1h-5l-1 2v-21l1-12z" fill="#ABEBCE"/>
<path transform="translate(771,830)" d="m0 0 6 2 1 2 1 14v12l-5 5-25 3h-8l-2-2 2-4 10-2 21-3-1-15z" fill="#D3F8F4"/>
<path transform="translate(447,685)" d="m0 0h1l1 21-1 26-2 3-6-1v8h-1v-47l1-7 7-1z" fill="#FFC483"/>
<path transform="translate(814,607)" d="m0 0h1l1 22v26h-7l-2 3-2-25v-18l3-3 5-2z" fill="#FEC282"/>
<path transform="translate(386,1101)" d="m0 0h6v7l-21 4-1 25-1 1h-6l-1 2 1-35z" fill="#FDC384"/>
<path transform="translate(679,1020)" d="m0 0h1l2 88-6 3-1-11v-31l1-26 1-2v-9l1-11z" fill="#ABEBCE"/>
<path transform="translate(1162,774)" d="m0 0h9l-2 6-2 1-35 3-1 18-1 1h-5v-26z" fill="#ABEBCE"/>
<path transform="translate(306,906)" d="m0 0h6v6l-6 2-45 8-3-1-2-6 33-6z" fill="#AEE8CA"/>
<path transform="translate(1017,829)" d="m0 0h2l1 3 3 36v14l-1-4-4-1 2 8-3 2-6-3v-1h6l-4-45 1-7z" fill="#B4EBD1"/>
<path transform="translate(378,463)" d="m0 0h8v6l-14 4-5 1-1 15-5 2h-3l1-25z" fill="#ACEBCF"/>
<path transform="translate(1075,1017)" d="m0 0h10v5l-2 1-25 2-6 1-1 16-5 1v-23l4-1z" fill="#ADEBD0"/>
<path transform="translate(574,996)" d="m0 0 3 1v52h-1l-1-7-2-1-1 6h-1l-1-47z" fill="#ABEBCE"/>
<path transform="translate(1281,543)" d="m0 0 3 1 5 25 3 18-6 1-2-7-6-33v-4z" fill="#5D0E10"/>
<path transform="translate(1189,557)" d="m0 0h5l2 6 7 34-1 5-5-1-8-39z" fill="#5D0E10"/>
<path transform="translate(750,545)" d="m0 0h2l1 8 3 1-17 2-21 3 1-7 5-2z" fill="#03875B"/>
<path transform="translate(1132,589)" d="m0 0h1l2 24-1 2-6 3h-3l-2-16v-11l5-1 4 2z" fill="#FEC182"/>
<path transform="translate(1174,683)" d="m0 0h3l1 11-3 1-19 1-2-6v-5z" fill="#5E0E10"/>
<path transform="translate(1322,844)" d="m0 0 1 3h5l1-1 7-1h10v1l-16 2v31l-1 1h-5l-1 2-1-23z" fill="#FEC284"/>
<path transform="translate(883,696)" d="m0 0 4 1v3l3 4v2l-16 2h-13l4-10z" fill="#F3AD82"/>
<path transform="translate(1316,521)" d="m0 0 7 3-1 6-5 4-10 3-8-1-3-3v-4l17-4h3z" fill="#FEDE96"/>
<path transform="translate(1168,515)" d="m0 0 4 1 2 11 2 16v6l-1 1h-5l-2-9-3-25z" fill="#5E0E11"/>
<path transform="translate(242,485)" d="m0 0h7v24l-1 10-6 1z" fill="#ABEBCE"/>
<path transform="translate(1175,775)" d="m0 0 2 2 7 20 2 24-3-3-6-14-9-1v-1h8l-1-13z" fill="#094F5B"/>
<path transform="translate(446,990)" d="m0 0h6l1 12h-19l-1-3v-7l1-1z" fill="#0D4D9A"/>
<path transform="translate(1292,832)" d="m0 0h13v3l5 9-1 4-2 2h-3v2h-2l-10-18z" fill="#154B95"/>
<path transform="translate(794,963)" d="m0 0 3 1v34l-2 1-1 10h-1l-2-25v-19z" fill="#D5FAF7"/>
<path transform="translate(444,1109)" d="m0 0h3v11l-12 2-5-1v-11z" fill="#0E4E9B"/>
<path transform="translate(1153,652)" d="m0 0 3 4 1 19-9 1-1-2-1-17 5 1 1-5z" fill="#F3AE82"/>
<path transform="translate(646,953)" d="m0 0h4l-2 4-2 3-3 1-11 1h-12l-1-2 3-5z" fill="#CFF5EF"/>
<path transform="translate(1184,686)" d="m0 0h2l1 2 1 9v11l-8 2-1 2-1-9v-12l5-3z" fill="#F3AD83"/>
<path transform="translate(166,709)" d="m0 0h3v12l-11 2h-5v-11l7-2z" fill="#5D0F0F"/>
<path transform="translate(363,1105)" d="m0 0 4 1 3 3-1 27-6-2v6h-1z" fill="#FEC584"/>
<path transform="translate(301,1057)" d="m0 0 7 2v15l-1 8-1 1h-5l-1 2v-21z" fill="#ABEBCE"/>
<path transform="translate(429,1069)" d="m0 0h2v19l-1 16-6 2v-25l2-4z" fill="#ABEBCE"/>
<path transform="translate(1081,786)" d="m0 0h12l-4 7-12 1h-13l-1-2 3-5z" fill="#D6F5F1"/>
<path transform="translate(1171,774)" d="m0 0h4l1 22-3-3-4-11-36 3-1 21h-7v-3l5-1 1-18 1-1 35-3 2-1z" fill="#31E8FA"/>
<path transform="translate(727,831)" d="m0 0h9l-4 7-16 2h-7l-2-1 2-5 1-1z" fill="#D1F7F1"/>
<path transform="translate(739,839)" d="m0 0h7l1 1 1 19 3 2h-11z" fill="#0F4E99"/>
<path transform="translate(1088,1017)" d="m0 0 2 1 7 20 1 20-3-1h2l-7-16-1-5z" fill="#104C54"/>
<path transform="translate(1288,675)" d="m0 0 2 1 3 17-1 5-5-1-2-3-1-3-2-1-1-8 3-1z" fill="#F3AD82"/>
<path transform="translate(707,812)" d="m0 0h7l1 1v19l2 1h-9z" fill="#0D4D9A"/>
<path transform="translate(373,644)" d="m0 0 3 1v16l-6 2h-2v-18z" fill="#5D0E0F"/>
<path transform="translate(1125,618)" d="m0 0h10l12 3 1 5-4 2-1 3-2-7-7 1h-8z" fill="#FE9048"/>
<path transform="translate(386,463)" d="m0 0 8 6 6 5v7l-8 2-1-7-5-4z" fill="#084D4E"/>
<path transform="translate(571 1e3)" d="m0 0h5v20l-3 15h-1l-1-12z" fill="#DCFDFE"/>
<path transform="translate(1062,766)" d="m0 0 1 4h6l1 1 1 16-8 1z" fill="#0D4D9A"/>
<path transform="translate(1141,623)" d="m0 0 2 3v9l-11 1-1-11z" fill="#5D0E10"/>
<path transform="translate(895,690)" d="m0 0 5 2 2 4-3 5-5 3h-5l-4-6 2-2h8z" fill="#FFC483"/>
<path transform="translate(619,938)" d="m0 0h7l1 1v16l-7 1z" fill="#0E4E9B"/>
<path transform="translate(378,463)" d="m0 0 3 1h-2l-1 5-7 2-6 2-6-1v-6z" fill="#DCFDFE"/>
<path transform="translate(435,984)" d="m0 0 16 2 3 3-2 2-21 1-2-2z" fill="#1BD3F9"/>
<path transform="translate(1125,783)" d="m0 0 6 1v18l-1 1h-5z" fill="#ABEBCE"/>
<path transform="translate(1304,581)" d="m0 0 5 2 2 4-2 4-7 3-5-3-2-5 9-1z" fill="#FEE098"/>
<path transform="translate(451,1111)" d="m0 0h2l1 10v9l-6 2-1-18z" fill="#ABEBCE"/>
<path transform="translate(1314,473)" d="m0 0h8l1 2v6l-3 2-10-2-1-7z" fill="#FEDE96"/>
<path transform="translate(1215,596)" d="m0 0 6 2v5l-6 5h-5l-3-3-1-4 1-1h8z" fill="#FEE198"/>
<path transform="translate(921,549)" d="m0 0h5l1 1 1 14-7 1-2-15z" fill="#5E0E11"/>
<path transform="translate(1089,599)" d="m0 0h11l1 8-1 5-6-1-3-1 2-7 2-2-6-1z" fill="#FE9D45"/>
<path transform="translate(758,347)" d="m0 0h7v1l-6 1-4 5-5 1v28h-1v-34l1-1z" fill="#E3FC60"/>
<path transform="translate(1046,1025)" d="m0 0 5 1v16l-5 1z" fill="#ABEBCE"/>
<path transform="translate(1287,665)" d="m0 0h2l1 5v6h-2l-4 6h-3l-1-7 4-3 1-4 2-2z" fill="#FE8349"/>
<path transform="translate(933,640)" d="m0 0 5 1-1 9-2 1-10-3 4-4h2z" fill="#FEC282"/>
<path transform="translate(898,658)" d="m0 0h2l1 3v7l-3-1-3 4-2 3-2-5 1-5 5-5z" fill="#FEC081"/>
<path transform="translate(888,616)" d="m0 0 5 2-1 7-6 2-4-4v-3l6-1z" fill="#FEE097"/>
<path transform="translate(1173,774)" d="m0 0h2l1 22-3-3-3-9 1-6z" fill="#1AD2F9"/>
<path transform="translate(958,538)" d="m0 0h9l1 9-7-1-2-1z" fill="#FEE199"/>
<path transform="translate(1118,559)" d="m0 0h2l1 12h-6l-1-1-1-10z" fill="#5F0E12"/>
<path transform="translate(456,991)" d="m0 0h2l1 3v8l-6 3-1-9 1-3z" fill="#A7EACF"/>
<path transform="translate(1291,775)" d="m0 0 4 1 1 5-3 1-1 37h-1z" fill="#FFC483"/>
<path transform="translate(281,472)" d="m0 0 3 1h-2v6l-13 3-20 3 1-2 24-4 3-1 1-5z" fill="#ABEBCE"/>
<path transform="translate(314,762)" d="m0 0 6 3-1 4-4 3-4-2-2-4 4-2z" fill="#FEDE96"/>
<path transform="translate(178,717)" d="m0 0h1v12l-7 5h-2l-1 2 1-9 7-1z" fill="#FFC483"/>
<path transform="translate(150,798)" d="m0 0h7l2 4v4l-6-1-3-1z" fill="#FEE299"/>
<path transform="translate(1209,904)" d="m0 0h1v42h-7v-2l5-1z" fill="#0ACF5A"/>
<path transform="translate(425,1066)" d="m0 0 6 2-2 1-1 6-1 2-1 16h-1z" fill="#DCFDFE"/>
<path transform="translate(386,472)" d="m0 0 4 2 2 2v7l-5 1z" fill="#05A868"/>
<path transform="translate(244,478)" d="m0 0h6l-1 7h-7v-6z" fill="#FEFAF1"/>
<path transform="translate(452,1106)" d="m0 0 2 1 1 13v10h-1l-1-9v-10l-6 3v-4z" fill="#33EAFA"/>
<path transform="translate(427,870)" d="m0 0h6v6l-6-1v11h-1v-15z" fill="#FAD0C3"/>
<path transform="translate(369,1111)" d="m0 0 2 1-1 25-1 1h-6v-4l6 2z" fill="#F3AF83"/>
<path transform="translate(1085,1017)" d="m0 0h3l1 5v9h-2l-2-5v-3l-2-1h2z" fill="#1DD4F9"/>
<path transform="translate(1188,783)" d="m0 0h7v6l-3 1-5-2z" fill="#F4FDFE"/>
<path transform="translate(1322,841)" d="m0 0h7l1 5-4 2-3-1z" fill="#FBFDFC"/>
<path transform="translate(254,915)" d="m0 0 3 1 2 5-5 1h-3v-6z" fill="#FEEDD8"/>
<path transform="translate(1125,777)" d="m0 0 6 1 1 6-7-1z" fill="#EDF8F3"/>
<path transform="translate(387,659)" d="m0 0 11 1-1 2-8 2h-6z" fill="#FFE49A"/>
<path transform="translate(744,967)" d="m0 0h2l1 5-6 4-1-1v-5z" fill="#ABEBCE"/>
<path transform="translate(1131,785)" d="m0 0h1v21h-7v-3l5-1z" fill="#2FE6FA"/>
<path transform="translate(1066,787)" d="m0 0h11v1l-9 1-1 4h10v1h-13l-1-2z" fill="#A4EAD0"/>
<path transform="translate(1202,896)" d="m0 0h6l1 6h-7z" fill="#F3FDFE"/>
<path transform="translate(895,693)" d="m0 0 4 2-1 5-5 1-2-5h4z" fill="#FFE49A"/>
<path transform="translate(1050,1019)" d="m0 0h5l-3 1v6l-6-1v-5z" fill="#E8FCFC"/>
<path transform="translate(749,979)" d="m0 0h1l1 12-4-1-1-10z" fill="#0E4E9B"/>
<path transform="translate(725,716)" d="m0 0 4 1-5 8 2 1h-5v-4h2z" fill="#FE8249"/>
<path transform="translate(359,466)" d="m0 0 5 1 1 6-6-1z" fill="#F6FDFE"/>
<path transform="translate(301,1052)" d="m0 0 5 1 2 3v3l-5-1-2-1z" fill="#F1FDFE"/>
<path transform="translate(754,980)" d="m0 0h2l1 5-4 3h-2v-6z" fill="#ABEBCE"/>
<path transform="translate(1036,682)" d="m0 0h2l-2 5-3 4h11v1h-12l-2-1 1-3 3-3z" fill="#FE8449"/>
<path transform="translate(1185,681)" d="m0 0 2 3-1 4v-2h-2l-2 4-4 1 2-4z" fill="#FE8449"/>
<path transform="translate(1088,1017)" d="m0 0 2 1 1 5v18h-1l-1-5z" fill="#0D5097"/>
<path transform="translate(772,849)" d="m0 0h1l1 7 2 4-2 2-4-1-2-3 4-1z" fill="#EEDED1"/>
<path transform="translate(796,814)" d="m0 0h1l1 7 2 3-2 3-4-1-2-3 4-1z" fill="#F0E4D6"/>
<path transform="translate(795,793)" d="m0 0h5l1 6-7-1z" fill="#FAE8DF"/>
<path transform="translate(1284,690)" d="m0 0 2 1 1 6 3 1-3 2h-3l-1-9z" fill="#FD854C"/>
<path transform="translate(764,981)" d="m0 0h1v11l-3 1h-11l1-2 7 1v-2h4z" fill="#23DBFA"/>
<path transform="translate(794,963)" d="m0 0 3 1v10h-1l-1-5h-4v-4z" fill="#ABEBCE"/>
<path transform="translate(455,839)" d="m0 0 5 1v5l-6-1z" fill="#FEF5F0"/>
<path transform="translate(1365,836)" d="m0 0 2 1-5 7h-7v-1l6-1 1-4h-6v-1z" fill="#FEB07F"/>
<path transform="translate(1171,774)" d="m0 0h2l-2 6-2 2h-15v-1l13-1 2-1z" fill="#33EAFA"/>
<path transform="translate(363,1105)" d="m0 0 4 1 3 3-1 3-6-3z" fill="#FEFEFE"/>
<path transform="translate(456,987)" d="m0 0 3 1v6l-1-3-5 2-1 3v-5l3-1z" fill="#3EF5FA"/>
<path transform="translate(771,826)" d="m0 0h6v6l-6-2-1-3z" fill="#FBF9F5"/>
<path transform="translate(454,864)" d="m0 0 3 2-1 5-4-1-2-1v-2h4z" fill="#FEECDD"/>
<path transform="translate(1063,788)" d="m0 0h2l-1 5 8 1v1h-10l-2-1 2-5z" fill="#3EF5FA"/>
<path transform="translate(670,809)" d="m0 0h3l1 5-3 1-3-1 1-4z" fill="#FEFEFE"/>
<path transform="translate(859,784)" d="m0 0 5 2v4l-5-1-1-4z" fill="#FEF6F2"/>
<path transform="translate(536,714)" d="m0 0 2 1-5 7 4 1-7-1v-2h2l2-4z" fill="#FFC483"/>
</svg>
